<svg xmlns="http://www.w3.org/2000/svg"><style>:root svg:not(:target){display:none}</style><svg viewBox="0 0 76 32" fill="none" id="card-leaf"><path d="M63.42 14.4c-.6-.88-1.18-1.78-1.7-2.7-.72-1.26-2.18-5.6-.18-6.68-.45 1.86 1.48 4.6 2.09 6.22.75 1.98 1.52 4.54 2.68 6.58-1.09-.96-2-2.12-2.89-3.42Zm3.31-1.67c.17 1.62.4 3.24.65 4.86-.69-1.67-1.58-3.3-2.26-4.91-1.1-2.59-1.87-5.3-2.96-7.87l.06-.01c3.29-.44 4.28 5.77 4.51 7.93Zm.3 16.66c-.39.82-1.52.94-1.99.1-.32-.57.2-1.5.59-1.9l.15-.14c.1.06.25.03.3-.08l.01-.02c.3.04.5.48.95.7.07.04.15.06.22.06.02.45-.06.9-.24 1.28Zm-7.38-3.44c-.53 1.54-1.2 3.28-2.34 4.45-.37.38-.71.37-1.01.17.37-2.1.86-3.84 1.82-5.8.58-1.19 1.3-2.34 1.83-3.56l.4-.31c-.09 1.79-.1 3.3-.7 5.05Zm-3.61-.57c.6-1.03 1.48-2.02 2.42-2.9-.53 1.06-1.03 2.13-1.53 3.18-.56 1.2-1.2 2.57-1.44 3.94l-.06-.1c-.77-1.33-.08-2.94.6-4.12Zm-11.8-11.6a28.24 28.24 0 0 1-1.9-2.75c-.4-.66-.54-1.42-1-2.02-.07-.1-.2-.08-.28 0-.04-1.26.12-2.64.3-3.83.15-1 .51-1.69.99-2.11.77 4.54 1.98 9.07 4.23 13.06a14.2 14.2 0 0 1-2.33-2.34Zm2.45-8.2c.75 3.37-.72 6.82.25 10.05-.83-1.97-1.69-3.93-2.39-5.96-.78-2.25-.8-4.74-1.7-6.93 1.4-.64 3.3.48 3.84 2.84Zm-3.71 19.62c-.02-.82.8-1.33 1.48-1.48.85-.18.9.68.95 1.4 0 .06.02.11.05.15-.61.98-2.45 1.32-2.48-.07Zm-5.62-5.43c-1.43 2-2.19 4.42-3.96 6.18-.79.78-1.57.95-2.2.73 1.4-4.12 4.53-7.14 8.2-9.05a9.44 9.44 0 0 0-2.04 2.14Zm-7.53 3.89a6.5 6.5 0 0 1 1.97-3.23c1.56-1.58 3.43-2.32 5.4-2.83-.83.57-1.59 1.27-2.17 1.79a17.1 17.1 0 0 0-4.71 6.65 2.95 2.95 0 0 1-.49-2.38Zm-8.79-19.42c-.4-1.1-.08-1.93.93-2.47 1.22 3.51 2.65 7.1 4.67 10.22a16.2 16.2 0 0 1-5.6-7.75Zm2.17-2.92c.75.28 1.4.71 1.95 1.31 1.42 1.35 1.63 3.48 1.74 5.33.08 1.47.03 2.9.43 4.25-1.01-1.92-2-3.85-2.93-5.8-.72-1.53-1-3.46-2.02-4.82.25-.1.52-.2.83-.27Zm-14.18 29.23h-.16c1.15-3.85 2.08-7.71 3.66-11.39-.25.9-.37 1.88-.49 2.66-.3 2.06-.65 4.38-.39 6.47-.6 1.07-1.29 2.08-2.62 2.26Zm-1.5-4.34c.58-2.05 2.03-3.7 3.44-5.36a27.45 27.45 0 0 0-2.75 9.52c-1.06-.72-.94-3.3-.7-4.16Zm-1.23-11.89c-1.03-.36-2-.92-2.91-1.5-.38-.26-3.25-3.54-2.52-4.08 1.84 1.57 4 2.8 6.08 3.97 1.67.94 3.46 2 5.31 2.7-2-.28-3.99-.38-5.96-1.09Zm7.23 1c-1.9-1.33-4.17-2.22-6.2-3.3-1.93-1.04-3.78-2.25-5.7-3.34 4.7.18 9.38 2.54 11.9 6.63Zm3.78 9.22c-1.21-.06-1.67-1.28-1.06-2.24.69-1.1 1.88-.54 2.73-.04.09.93-.64 2.32-1.67 2.28Zm-14.4 1.79c-.51.02-.7-.53-.74-.96-.07-.53.28-.96.67-1.24.37-.26.83-.4 1.27-.29.31.08.45.47.75.6-.2.91-1.04 1.84-1.95 1.89Zm11.67-20.93c1.16.29.95 2.02.68 2.87a2.5 2.5 0 0 1-.8 1.25c-.81.16-1.63-.78-2.03-1.66-.73-1.58.57-2.85 2.15-2.46Zm16.76 1.33c-.42-1.1-.06-2.28 1.06-2.69 1.07-.39 1.78.5 1.8 1.55 0 .5-.15.97-.42 1.38-.26.41-.76.54-1.13.8-.04.02-.05.05-.07.07-.55-.04-.96-.38-1.24-1.11Zm22.2 3.57c.7-.39 1.32.23 1.53.87.31.91-.19 1.38-.5 2.16l-.02.04c-1.58.05-2.83-2.04-1-3.07Zm21.92 8.13c-2.16.59-4.34.93-6.54 1.08l-.4-.2c.06-2.19-.64-4.42-.86-6.58-.18-1.67-.32-3.5-1.08-5.02-1-1.95-3-4.7-5.43-3.44-2.9 1.53-.87 6.69.2 8.63 1.27 2.34 3.09 5.33 5.55 6.7-2.18.04-4.37-.08-6.57-.33-2.4-.83-3.69-3.1-4.98-5.18 1.37-.34 1.44-2.47.96-3.6-.63-1.5-2.05-2.13-3.5-1.48-1.64.73-2.12 2.78-1.16 4.27.42.64 1.1 1.13 1.86 1.22a2 2 0 0 0 1.2-.2c.2 1.29 1.07 2.4 1.9 3.34.44.5.93.97 1.48 1.34-3.4-.49-6.82-1.22-10.2-2 0-1.55-.38-3.06-.28-4.64.1-1.62.26-3.23.21-4.86-.06-2.23-.82-4.93-3.06-5.79-4.8-1.84-4.8 4.83-3.83 7.86-.06 1.63 1.79 3.7 2.6 4.8a8.93 8.93 0 0 0 2.23 2.13c-3.07-.71-6.1-1.44-9.09-2.02-.75-.7-1.42-1.47-2-2.31-.76-1.09-1-2.25-1.36-3.43 2.55-.11 2.88-7.2-1.4-5.74-1.78.6-2.3 2.7-1.54 4.33.37.81 1.38 1.64 2.23 1.55 0 1.15.67 2.39 1.21 3.29.48.78 1.06 1.5 1.74 2.1-2.2-.4-4.54-.7-6.9-.83l-.31-.2c-.5-3.45.42-8.08-2-10.9-1.26-1.5-4.1-3.57-5.74-1.34-1.62 2.21-.1 5 1.16 7a15.81 15.81 0 0 0 5.37 5.38c-2.02-.05-4.05.04-6.04.3-.76-.44-1.52-.86-2.26-1.31-1.1-.67-2.03-1.53-3.07-2.29.32-.43.54-.94.7-1.45.57-1.9.06-4.26-2.13-4.5a3.12 3.12 0 0 0-2.95 1.36c-.58.94-.29 2.18.17 3.1.26.54.66 1 1.12 1.33 0 .05.01.1.03.14a1.58 1.58 0 0 0 2.2.78c.2-.1.38-.23.55-.39 1.05 1.62 2.88 2.6 4.67 3.37-2.03.33-4 .85-5.86 1.6-2.12-5.38-8.49-7.66-13.78-7.68-.26 0-.43.22-.45.47-.52 5.7 6.88 8.78 11.93 8.32a18.58 18.58 0 0 0-6.79 6.37 2 2 0 0 0-.9-.52c-1.1-.28-2.37.45-2.99 1.35a2.8 2.8 0 0 0 .24 3.4c.77.88 2.06.53 2.85-.1a3.1 3.1 0 0 0 1.18-2.94.31.31 0 0 0-.05-.12v-.03c.06-.02.1-.05.15-.1a44.31 44.31 0 0 1 5-4.23c-2.73 2.7-5.39 6.57-3.88 9.83 1.83 3.98 5.77.85 6-2.47 0-.12-.1-.17-.2-.16.22-1.1.27-2.26.38-3.35.14-1.4.37-2.75.69-4.11.15-.66.41-1.24.54-1.88a23.83 23.83 0 0 1 6.74-2.2 7.18 7.18 0 0 0-1.85 2.08 10.6 10.6 0 0 0-1.36 3l-.27-.02c-.87.01-1.6.6-2.06 1.33-1.02 1.62-.17 3.57 1.7 3.83 1.54.22 2.53-1.2 2.7-2.62.08-.75-.2-1.52-.72-1.82a1.8 1.8 0 0 0-.43-.4c.3-.64.5-1.4.72-2.02a6.78 6.78 0 0 1 2.57-3.51c.45-.06.91-.11 1.38-.15 4.84-.44 9.72.3 14.5 1.3-4.94.35-11.28 5.24-8.84 10.22 1.32 2.7 4.62 1 5.95-.57 2.44-2.9 3.1-6.9 6.44-8.89l1.8.4c1.63.36 3.3.75 5 1.14a9.51 9.51 0 0 0-2.65 3.94 2.4 2.4 0 0 0-.94-.19 2.94 2.94 0 0 0-2.91 3.02c.1 1.81 1.78 2.39 3.24 1.74a2.5 2.5 0 0 0 1.42-1.46c.1-.34.08-.64-.02-.92a1.65 1.65 0 0 0-.22-1.78c.34-.51.6-1.06.9-1.62.47-.94 1.07-1.8 1.74-2.6 3.53.8 7.13 1.55 10.74 1.97l-.07.13c-2.11 1.26-4.14 3.06-5 5.42-.7 1.95-.38 5.1 1.94 5.74 1.86.52 3.2-2.42 3.77-3.72 1.08-2.48 1.51-4.78.95-7.4 1.91.17 3.82.23 5.71.15a8.07 8.07 0 0 0-1.34 2.88 6.7 6.7 0 0 0-.24 1.99c-.2.1-.38.21-.54.35-1.15.98-1.78 2.9-.92 4.26a2.42 2.42 0 0 0 4.18-.2 3.2 3.2 0 0 0-.08-3.02 1.8 1.8 0 0 0-1.17-1.5l-.2-.06c.03-.51.03-1.03.1-1.5.17-1.12.57-2.22 1.07-3.23 2.74-.18 5.44-.68 8.08-1.63.54-.19.32-1.03-.23-.88Z" fill="#8E9892" fill-opacity=".7"></path></svg><svg viewBox="0 0 228 32" fill="none" id="divider-mobile"><path d="M99.68 16.12a.23.23 0 0 0-.05-.13h.12l-.07.13Zm-9.59 13.34c.62-4.81 3.94-10.85 9.42-13.11l.07-.04c-1.35 2.52-2.06 5.22-3.58 7.71-1.32 2.18-3.56 3.9-5.9 5.44Zm-18.04-1.71c-.47.79-3.18 4.21-2.94 2.2.2-1.66.75-3.3 1.37-4.89 1.29-3.29 3.69-6.05 6.88-8.37-.82.96-1.17 2.22-1.55 3.27a43.98 43.98 0 0 1-3.76 7.79Zm-7.13-22.42c-1.97-2.26 1.58-1.04 3.24-.63 2.73.68 5.33 1.82 7.7 3.05 3.63 1.9 7.13 3.93 9.42 6.8-7.89-1.23-15.69-3.85-20.36-9.22Zm23.77.68c-.9-.6-1.69-1.27-2.47-1.94.17.15-2.43-3.03-2.3-3a42.43 42.43 0 0 1 13.68 6.4c2.93 2.1 4.78 4.96 7.58 7.14-3.99-1.38-7.32-3.33-10.88-5.3a78.46 78.46 0 0 1-5.6-3.3Zm-42.61 22.8c-1.56 1.46-1.95 1.11-1.94-.66 0-1.87 1.1-3.66 2.3-5.23 2-2.63 5.18-4.66 8.02-6.72h.1c-2.62 4.37-4.42 8.83-8.48 12.62Zm-15.52-8.96c-1.71 2.37-3.21 4.91-6.66 5.88.73-4.4 4.92-7.8 10.12-9.4-1.52.86-2.62 2.35-3.46 3.52Zm-28.24-4.47c5.75-1.55 11.23-1.4 17-.3l-3.24.03c-.4 0-.55.29-.47.52-4.57.53-9.35 1.73-13.3-.25Zm17.61-10.63c7.57.06 13.15 5.14 18.07 9.3-3.3-1.2-6.95-1.8-10.07-3.43-3.05-1.58-5.38-3.9-8-5.87Zm19.44-1.55c9.05 1.39 16.4 5.08 21 11.23-8.1-1.55-17.28-5.16-21-11.23Zm72.26 12.09c-1.61-.05-3.23-.07-4.85-.1.06-.11.05-.25-.08-.37-3.51-3.1-6.26-6.56-10.35-9.25-3.9-2.56-8.6-4.23-13.38-5.55-.33-.1-.74.2-.6.46 1.93 3.65 5.4 6.12 9.43 8.45 3.54 2.04 7.63 5.07 12.06 6.19-5.74-.12-11.5-.2-17.24-.26-1.29-2.79-4.77-4.76-7.75-6.45a42.33 42.33 0 0 0-15.54-5.36c-.36-.04-.67.16-.58.45 1.06 3.52 5.3 6.1 8.96 8.05a36.34 36.34 0 0 0 8.26 3.27c-6.15-.03-12.3-.04-18.46-.03-2.55-7.26-14.16-11.36-22.9-12.53-.36-.05-.82.18-.66.5 2.97 5.77 11.5 10.49 19.6 12.05-5.86.02-11.73.05-17.59.1a.35.35 0 0 0-.13-.1c-.23-.12-.48-.21-.72-.32-5.28-4.92-11.57-11.16-20.67-10.65-.52.02-.85.5-.44.81 2.76 2.08 5.24 4.5 8.34 6.29 3.34 1.91 7.29 3.1 11.28 3.99l-15.31.13c-6.77-2.77-14.99-2.71-21.93-.36-.44.14-.5.7-.16.92 2.56 1.69 5.73 1.88 8.98 1.82 3.9-.07 8.96-.23 12.66-1.24.15-.04.22-.14.23-.24l10.23.08c-5.41 1.54-9.2 5.71-9.45 10.21-.01.24.31.41.6.35 2.9-.58 4.74-2.1 6.27-4.02.9-1.13 1.64-2.34 2.54-3.47 1.07-1.35 2.37-2.05 4.02-2.89a.32.32 0 0 0 .16-.14l16.61.11c-6.02 3.54-11.65 8.54-9.95 14.74.06.25.5.46.82.36 3.02-.95 4.8-3.5 6.36-5.57 2.3-3.03 3.77-6.22 5.34-9.5v-.02c6.93.03 13.86.05 20.79.02-5.82 3.19-9.2 10.06-8.71 15.32.02.23.25.49.59.46 2.87-.25 4.67-3.72 5.59-5.43 1.73-3.25 2.67-7.54 5.34-10.37 6.45-.03 12.9-.09 19.35-.2-6.45 1.79-10.12 9.94-9.95 14.64.02.47.71.65 1.15.36 6.25-4.08 8.82-9.02 10.91-15.03 3.65-.07 7.3-.14 10.93-.24.38 0 .38-.43 0-.44Zm16.62.7h.12a.23.23 0 0 0-.05.13l-.07-.13Zm3.75 8.03c-1.52-2.5-2.23-5.19-3.58-7.71l.07.04c5.48 2.26 8.8 8.3 9.42 13.11-2.35-1.54-4.6-3.26-5.91-5.44Zm20.19-4.06c-.38-1.05-.73-2.31-1.55-3.27 3.2 2.32 5.6 5.08 6.88 8.37a20.2 20.2 0 0 1 1.37 4.89c.24 2.01-2.47-1.41-2.94-2.2a44.02 44.02 0 0 1-3.76-7.79Zm-9.47-5.4c2.29-2.88 5.8-4.92 9.42-6.8a35.27 35.27 0 0 1 7.7-3.06c1.66-.4 5.21-1.63 3.24.63-4.67 5.37-12.47 7.99-20.36 9.23Zm-9.01-5.24c-3.57 1.96-6.9 3.9-10.89 5.29 2.8-2.18 4.65-5.05 7.58-7.14 4-2.86 8.55-5 13.69-6.4.12-.03-2.49 3.15-2.3 3-.8.67-1.59 1.34-2.48 1.94a78.36 78.36 0 0 1-5.6 3.3Zm39.74 6.88h.09c2.84 2.06 6.01 4.09 8.01 6.72 1.2 1.57 2.3 3.36 2.31 5.23 0 1.77-.38 2.12-1.94.67-4.06-3.79-5.86-8.25-8.47-12.62Zm20.53.13c5.2 1.6 9.4 5 10.12 9.4-3.45-.97-4.95-3.5-6.66-5.88-.84-1.17-1.94-2.66-3.46-3.52Zm18.42-.7c.07-.23-.08-.51-.48-.52l-3.25-.03c5.78-1.1 11.26-1.25 17.01.3-3.94 1.98-8.72.78-13.28.25Zm-12.33-5c-3.12 1.61-6.77 2.21-10.07 3.42 4.92-4.16 10.5-9.24 18.07-9.3-2.62 1.98-4.95 4.29-8 5.87Zm-32.44 3.8c4.6-6.15 11.95-9.84 21-11.23-3.72 6.07-12.9 9.68-21 11.23Zm-51.26 1.3c3.64.1 7.28.17 10.93.24 2.08 6.01 4.66 10.95 10.9 15.03.45.3 1.14.11 1.16-.36.17-4.7-3.5-12.85-9.95-14.63 6.45.1 12.9.16 19.35.2 2.67 2.82 3.6 7.11 5.34 10.36.92 1.7 2.72 5.18 5.6 5.43.33.03.56-.23.58-.46.49-5.26-2.89-12.13-8.7-15.32 6.92.03 13.85.01 20.78-.02v.02c1.57 3.28 3.04 6.47 5.33 9.5 1.56 2.07 3.35 4.62 6.37 5.57.32.1.76-.11.82-.36 1.7-6.2-3.93-11.2-9.95-14.74l16.6-.11c.04.05.08.1.17.14 1.65.84 2.95 1.54 4.02 2.89.9 1.13 1.64 2.34 2.54 3.47 1.53 1.92 3.36 3.44 6.27 4.02.29.06.62-.1.6-.35-.26-4.5-4.04-8.67-9.45-10.2l10.24-.1c0 .1.08.2.22.25 3.7 1.01 8.76 1.17 12.66 1.24 3.24.06 6.42-.13 8.98-1.82.34-.23.28-.78-.16-.92-6.94-2.35-15.16-2.41-21.93.36l-15.31-.13c4-.9 7.94-2.08 11.28-4 3.1-1.78 5.58-4.2 8.34-6.28.41-.3.08-.79-.44-.81-9.1-.5-15.39 5.73-20.67 10.65-.24.1-.49.2-.72.31a.35.35 0 0 0-.13.11c-5.86-.05-11.73-.08-17.59-.1 8.1-1.56 16.63-6.28 19.6-12.05.16-.32-.3-.55-.65-.5-8.75 1.17-20.36 5.27-22.91 12.53-6.16-.01-12.31 0-18.47.03 3.08-.73 6.1-2.12 8.27-3.27 3.66-1.95 7.9-4.53 8.96-8.05.1-.29-.22-.5-.58-.45a42.32 42.32 0 0 0-15.54 5.36c-2.98 1.7-6.47 3.66-7.75 6.45-5.75.05-11.5.14-17.24.26 4.43-1.12 8.52-4.15 12.06-6.19 4.04-2.33 7.5-4.8 9.44-8.45.14-.26-.28-.55-.6-.46-4.78 1.32-9.5 3-13.39 5.55-4.1 2.7-6.84 6.15-10.35 9.25-.13.12-.14.26-.08.36l-4.85.1c-.38.02-.38.44 0 .45Z" fill="#8E9892" fill-opacity=".7"></path></svg><svg viewBox="0 0 296 42" fill="none" id="divider-tablet"><path d="M129.41 21.16a.3.3 0 0 0-.06-.17h.15l-.09.17Zm-12.45 17.51c.8-6.32 5.11-14.25 12.23-17.21l.09-.06c-1.75 3.32-2.67 6.86-4.64 10.13-1.72 2.86-4.62 5.12-7.68 7.14Zm-23.42-2.25c-.62 1.03-4.13 5.53-3.82 2.89.26-2.19.98-4.32 1.78-6.41 1.67-4.32 4.79-7.95 8.93-11-1.06 1.26-1.52 2.92-2 4.3a58.01 58.01 0 0 1-4.9 10.22Zm-9.26-29.42c-2.56-2.97 2.06-1.37 4.2-.83 3.55.89 6.93 2.39 10 4 4.71 2.48 9.26 5.16 12.23 8.94-10.24-1.63-20.36-5.06-26.43-12.11Zm30.86.88a31.93 31.93 0 0 1-3.2-2.54c.22.2-3.16-3.98-3-3.93a54.74 54.74 0 0 1 17.76 8.39c3.81 2.75 6.21 6.51 9.84 9.37-5.17-1.8-9.49-4.37-14.12-6.94-2.5-1.39-4.95-2.79-7.28-4.35Zm-55.32 29.94c-2.02 1.9-2.53 1.45-2.52-.87.01-2.46 1.44-4.8 3-6.87 2.6-3.45 6.72-6.11 10.4-8.82h.12c-3.39 5.73-5.73 11.6-11 16.56Zm-20.14-11.77c-2.23 3.12-4.17 6.45-8.65 7.72.94-5.77 6.38-10.25 13.14-12.33-1.98 1.13-3.4 3.08-4.5 4.61Zm-36.67-5.86c7.46-2.04 14.59-1.83 22.08-.4l-4.22.04c-.51.01-.71.38-.61.68-5.93.7-12.13 2.28-17.25-.32Zm22.87-13.96c9.82.09 17.07 6.75 23.46 12.21-4.29-1.58-9.02-2.37-13.08-4.5-3.95-2.07-6.98-5.1-10.38-7.71Zm25.23-2.03c11.76 1.82 21.3 6.67 27.26 14.74-10.52-2.04-22.43-6.77-27.26-14.74Zm93.82 15.86-6.3-.13c.07-.14.06-.32-.11-.47-4.56-4.08-8.12-8.61-13.44-12.15-5.05-3.36-11.17-5.55-17.37-7.29-.43-.12-.96.27-.78.61 2.51 4.8 7 8.04 12.25 11.1 4.6 2.67 9.9 6.65 15.66 8.11-7.46-.15-14.93-.27-22.4-.33-1.66-3.67-6.17-6.25-10.05-8.47a54.55 54.55 0 0 0-20.17-7.03c-.47-.06-.87.21-.76.59 1.38 4.61 6.88 8 11.64 10.56a46.88 46.88 0 0 0 10.73 4.29c-8-.04-15.98-.05-23.97-.03-3.31-9.54-18.39-14.92-29.74-16.46-.46-.06-1.06.24-.85.66 3.85 7.58 14.94 13.77 25.44 15.82-7.6.03-15.22.07-22.83.13a.46.46 0 0 0-.17-.14c-.3-.15-.62-.27-.93-.4-6.86-6.47-15.02-14.66-26.85-14-.67.04-1.1.67-.57 1.08 3.6 2.72 6.8 5.9 10.84 8.24 4.34 2.52 9.46 4.08 14.65 5.25l-19.9.16c-8.77-3.63-19.44-3.55-28.46-.47-.57.2-.65.91-.2 1.22 3.31 2.2 7.44 2.46 11.65 2.38 5.06-.1 11.64-.3 16.44-1.63.19-.05.29-.18.3-.32l13.28.12c-7.03 2.02-11.93 7.5-12.27 13.4-.02.31.4.53.78.45 3.77-.76 6.15-2.75 8.14-5.27 1.17-1.49 2.13-3.07 3.3-4.56 1.39-1.77 3.07-2.69 5.22-3.79.1-.05.17-.12.2-.19l21.57.15c-7.82 4.65-15.13 11.2-12.93 19.34.1.33.66.61 1.08.48 3.91-1.25 6.23-4.6 8.26-7.3 2.98-4 4.88-8.18 6.92-12.48v-.03c9 .04 18 .06 27 .03-7.56 4.18-11.95 13.2-11.31 20.11.02.3.33.63.76.6 3.73-.33 6.07-4.88 7.26-7.13 2.25-4.26 3.46-9.9 6.94-13.6 8.37-.04 16.74-.12 25.11-.26-8.36 2.34-13.13 13.04-12.91 19.2.02.63.92.86 1.5.48 8.1-5.36 11.45-11.84 14.15-19.73 4.74-.09 9.47-.19 14.2-.31.48-.02.48-.57 0-.59Zm21.57.93h.15a.3.3 0 0 0-.06.17l-.1-.17Zm4.86 10.54c-1.97-3.27-2.9-6.81-4.64-10.13l.1.06c7.1 2.96 11.42 10.9 12.22 17.21-3.06-2.02-5.96-4.28-7.68-7.14Zm26.21-5.33c-.48-1.38-.94-3.04-2-4.3 4.14 3.05 7.26 6.68 8.93 11 .8 2.09 1.53 4.23 1.78 6.4.3 2.65-3.2-1.84-3.82-2.88a58.12 58.12 0 0 1-4.89-10.22Zm-12.28-7.1c2.97-3.77 7.52-6.45 12.23-8.92a45.5 45.5 0 0 1 10-4.01c2.14-.54 6.76-2.14 4.2.83-6.07 7.05-16.19 10.48-26.43 12.1Zm-11.7-6.87c-4.64 2.57-8.96 5.13-14.13 6.94 3.63-2.86 6.03-6.62 9.84-9.37a54.74 54.74 0 0 1 17.76-8.4c.16-.04-3.22 4.14-3 3.94a31.47 31.47 0 0 1-3.2 2.54 101.5 101.5 0 0 1-7.28 4.35Zm51.59 9.03h.11c3.7 2.7 7.81 5.37 10.41 8.82 1.56 2.06 2.99 4.4 3 6.87 0 2.32-.5 2.77-2.52.87-5.27-4.97-7.61-10.83-11-16.56Zm26.65.18c6.76 2.08 12.2 6.56 13.14 12.33-4.48-1.27-6.43-4.6-8.65-7.72-1.09-1.53-2.5-3.48-4.5-4.61Zm23.91-.93c.1-.3-.1-.67-.61-.68l-4.22-.03c7.5-1.44 14.62-1.65 22.08.39-5.12 2.6-11.32 1.02-17.25.32Zm-16-6.57c-4.06 2.13-8.8 2.92-13.08 4.5 6.39-5.46 13.64-12.12 23.47-12.21-3.41 2.6-6.44 5.64-10.4 7.71Zm-42.11 5c5.96-8.07 15.5-12.92 27.26-14.74-4.83 7.97-16.74 12.7-27.26 14.74Zm-66.56 1.7c4.73.13 9.46.23 14.2.32 2.7 7.9 6.05 14.37 14.16 19.73.57.38 1.47.15 1.49-.48.22-6.16-4.55-16.86-12.91-19.2 8.37.14 16.74.22 25.11.26 3.48 3.7 4.7 9.34 6.94 13.6 1.19 2.25 3.53 6.8 7.26 7.13a.7.7 0 0 0 .76-.6c.64-6.9-3.75-15.93-11.3-20.1 9 .02 18 0 26.99-.04v.03c2.04 4.3 3.94 8.49 6.92 12.47 2.03 2.7 4.34 6.06 8.26 7.3.43.14.99-.14 1.08-.47 2.2-8.13-5.11-14.7-12.93-19.34a7594 7594 0 0 0 21.56-.15c.04.07.1.14.2.2 2.16 1.1 3.84 2.01 5.23 3.78 1.17 1.49 2.13 3.07 3.3 4.56 1.99 2.52 4.37 4.5 8.14 5.27.37.08.8-.14.78-.46-.34-5.9-5.24-11.37-12.27-13.4l13.29-.1c0 .13.1.26.3.31 4.79 1.33 11.37 1.54 16.43 1.63 4.2.08 8.34-.17 11.65-2.38.45-.3.37-1.03-.2-1.22-9.02-3.08-19.68-3.16-28.47.47l-19.89-.16c5.2-1.17 10.31-2.73 14.65-5.25 4.03-2.34 7.25-5.52 10.84-8.24.53-.4.1-1.04-.57-1.07-11.83-.67-19.99 7.52-26.85 13.98-.31.14-.63.26-.93.4a.45.45 0 0 0-.17.15c-7.61-.06-15.22-.1-22.83-.13 10.5-2.05 21.59-8.24 25.44-15.82.21-.42-.4-.72-.85-.66-11.36 1.54-26.43 6.92-29.74 16.46-7.99-.02-15.98-.01-23.97.03a46.86 46.86 0 0 0 10.73-4.29c4.76-2.56 10.25-5.95 11.64-10.56.11-.38-.3-.65-.75-.59a54.55 54.55 0 0 0-20.18 7.03c-3.88 2.22-8.4 4.8-10.06 8.47a1945 1945 0 0 0-22.39.33c5.76-1.46 11.07-5.44 15.66-8.12 5.24-3.05 9.74-6.3 12.25-11.09.18-.34-.35-.73-.78-.6-6.2 1.73-12.32 3.92-17.37 7.28-5.32 3.54-8.88 8.07-13.44 12.15-.17.15-.18.33-.1.47l-6.3.13c-.5.02-.5.57 0 .59Z" fill="#8E9892" fill-opacity=".7"></path></svg><svg viewBox="0 0 28 28" fill="none" id="icon-burger-close"><rect width="35.207" height="2.994" rx="1.497" transform="matrix(.69604 .718 -.69604 .718 3.084 1)" fill="#0F805D" fill-opacity=".75"></rect><rect width="35.207" height="2.994" rx="1.497" transform="matrix(.69604 -.718 .69604 .718 .379 26.164)" fill="#0F805D" fill-opacity=".75"></rect></svg><svg viewBox="0 0 60 60" fill="none" id="icon-burger"><path d="M50.13 27.5h-40.26a2.37 2.37 0 0 0-2.37 2.38v.25a2.37 2.37 0 0 0 2.38 2.37h40.24a2.37 2.37 0 0 0 2.38-2.38v-.25a2.37 2.37 0 0 0-2.38-2.37Zm0 12.5h-40.26a2.37 2.37 0 0 0-2.37 2.38v.24a2.37 2.37 0 0 0 2.38 2.38h40.24a2.37 2.37 0 0 0 2.38-2.38v-.24a2.37 2.37 0 0 0-2.38-2.38Zm0-25h-40.26a2.37 2.37 0 0 0-2.37 2.38v.25a2.37 2.37 0 0 0 2.38 2.37h40.24a2.37 2.37 0 0 0 2.38-2.38v-.25a2.37 2.37 0 0 0-2.38-2.37Z" fill="#0F805D"></path></svg><svg viewBox="0 0 33 32" fill="none" id="icon-delivery"><path d="M25.83 9.33c0-1.46-1.2-2.66-2.66-2.66h-4v2.66h4v3.54l-4.64 5.8h-4.7v-6.67h-5.33a5.33 5.33 0 0 0-5.33 5.33v4h2.66a4 4 0 1 0 8 0h5.98l6.02-7.53v-4.47Zm-20 9.34v-1.34c0-1.46 1.2-2.66 2.67-2.66h2.67v4h-5.34Zm4 4c-.73 0-1.33-.6-1.33-1.34h2.67c0 .74-.6 1.34-1.34 1.34Z" fill="#0F805D"></path><path d="M7.17 8h6.66v2.67h-6.66v-2.67Zm18.66 9.33a4 4 0 1 0 0 8 4 4 0 0 0 0-8Zm0 5.34a1.34 1.34 0 0 1 0-2.67 1.34 1.34 0 1 1 0 2.67Z" fill="#0F805D"></path></svg><svg viewBox="0 0 18 14" fill="none" id="icon-email"><path d="M16.88 0h-15.75c-.3 0-.59.12-.8.34a1.2 1.2 0 0 0-.33.83v11.66c0 .31.12.61.33.83.21.22.5.34.8.34h15.75c.3 0 .58-.12.8-.34.2-.22.32-.52.32-.83v-11.66c0-.31-.12-.6-.33-.83a1.1 1.1 0 0 0-.8-.34Zm-.87 12.83h-13.95l3.94-4.22-.81-.81-4.07 4.36v-10.1l7 7.2a1.1 1.1 0 0 0 1.58 0l7.18-7.39v10.21l-4.14-4.3-.8.83 4.07 4.22Zm-14.15-11.66h14.1l-7.05 7.27-7.05-7.27Z" fill="#000"></path></svg><svg viewBox="0 0 20 24" fill="none" id="icon-html-academy"><path d="M10.11 0h-.07l-10.04.99v17.38l10.04 5.63 9.96-5.63v-17.38l-9.89-.99Zm8.48 8.52-8.55-4.79v-.07h-.08l-.07-.07v.07l-8.48 4.86v-6.34l8.55-.84 8.63.84v6.34Zm-8.63-3.73 8.55 4.71-3.34 1.83-5.28-2.95v.98l4.39 2.46-.67.36-3.72-2.12v.99l2.82 1.62-.6.35-2.22-1.27v.99l1.41.77-1.34.78-8.47-4.72 8.47-4.78Zm-8.55 5.84 8.48 4.78v.7l-5.88-3.3v.98l5.95 3.38v.78l-5.95-3.31v.98l5.95 3.38 6.03-3.45v-3.66l2.52-1.4v7.03l-8.55 4.86-8.55-4.78v-6.97Z" fill="#000"></path></svg><svg viewBox="0 0 16 24" fill="none" id="icon-leaf-secondary"><path d="M13.49 5.98a14.2 14.2 0 0 0-5.11-5.07l-.38-.22-.38.22a14.11 14.11 0 0 0-7.05 12.72c.08 2.2.92 4.04 2.43 5.34 1.16 1 2.65 1.6 4.25 1.75v2.59h1.5v-12h-1.5v7.9a5.63 5.63 0 0 1-5.18-5.64v-.43a12.67 12.67 0 0 1 5.93-10.7 12.67 12.67 0 0 1 5.93 11.13 5.54 5.54 0 0 1-3.68 5.28v1.59a7.32 7.32 0 0 0 2.75-1.47 7.14 7.14 0 0 0 2.43-5.83c0-2.52-.67-5-1.94-7.16Z" fill="#000"></path></svg><svg viewBox="0 0 21 22" fill="none" id="icon-leaf"><path d="M6.5 17c11.96 0 12.92-10.17 13-15a.98.98 0 0 0-1-1c-17 .32-17 8.55-17 16v4" stroke="#0F805D" stroke-width="2" stroke-linecap="round" stroke-linejoin="round"></path><path d="M1.5 17s0-6 8-7" stroke="#0F805D" stroke-width="2" stroke-linecap="round" stroke-linejoin="round"></path></svg><svg viewBox="0 0 16 20" fill="none" id="icon-phone"><path d="m4.56.5-.86.26a4.2 4.2 0 0 0-2.94 3.43c-.36 2.48.44 5.38 2.36 8.7 1.92 3.33 4.02 5.47 6.35 6.4a4.2 4.2 0 0 0 4.45-.84l.66-.62a2.4 2.4 0 0 0 .3-3.15l-1.64-2.25a1.8 1.8 0 0 0-1.98-.67l-2.46.75-.07.01c-.27.04-.9-.54-1.67-1.9-.82-1.4-.99-2.24-.76-2.45l1.25-1.17a3 3 0 0 0 .69-3.42l-.8-1.76a2.4 2.4 0 0 0-2.88-1.32Zm1.79 1.81.8 1.77a1.8 1.8 0 0 1-.42 2.05l-1.26 1.17c-.8.76-.53 2.06.55 3.93 1.01 1.75 1.94 2.62 2.94 2.47l.14-.03 2.51-.76a.6.6 0 0 1 .66.22l1.63 2.25a1.2 1.2 0 0 1-.15 1.58l-.65.62a3 3 0 0 1-3.18.6c-2.04-.82-3.97-2.77-5.76-5.88-1.8-3.11-2.53-5.76-2.21-7.94a3 3 0 0 1 2.1-2.45l.86-.26a1.2 1.2 0 0 1 1.44.66Z" fill="#000"></path></svg><svg viewBox="0 0 25 24" fill="none" id="icon-snowflake"><path d="M12.5 24a.92.92 0 0 1-.6-.22.7.7 0 0 1-.25-.53v-1.94l-1.11.97a.92.92 0 0 1-.6.22.92.92 0 0 1-.62-.22.7.7 0 0 1-.25-.53c0-.2.1-.39.26-.53l2.32-2.03v-5.9l-5.84 2.95-.85 2.78c-.06.2-.2.35-.4.45-.2.1-.43.13-.65.08a.85.85 0 0 1-.52-.35.67.67 0 0 1-.08-.57l.4-1.32-1.92.96c-.2.1-.43.13-.65.08a.85.85 0 0 1-.52-.35.67.67 0 0 1-.08-.57c.06-.2.2-.35.4-.45l1.92-.97-1.52-.36a.91.91 0 0 1-.3-.13.8.8 0 0 1-.22-.22.66.66 0 0 1-.08-.57c.02-.1.07-.18.14-.26a.83.83 0 0 1 .25-.2.94.94 0 0 1 .65-.07l3.17.74 5.84-2.94-5.83-2.94-3.18.74a.97.97 0 0 1-.64-.08.77.77 0 0 1-.4-.46.67.67 0 0 1 .09-.56c.11-.17.3-.3.51-.35l1.52-.36-1.93-.97a.84.84 0 0 1-.25-.19.72.72 0 0 1-.15-.26.66.66 0 0 1 .08-.57.8.8 0 0 1 .23-.22.98.98 0 0 1 .95-.05l1.92.96-.4-1.32a.66.66 0 0 1 .07-.58.79.79 0 0 1 .23-.22.98.98 0 0 1 .96-.05c.1.05.18.12.25.2a.6.6 0 0 1 .14.26l.85 2.78 5.84 2.94v-5.89l-2.32-2.03a.75.75 0 0 1-.2-.24.67.67 0 0 1 0-.58.76.76 0 0 1 .2-.24.88.88 0 0 1 .27-.16.97.97 0 0 1 .94.16l1.1.97v-1.94c0-.2.1-.39.26-.53a.92.92 0 0 1 .6-.22c.23 0 .45.08.61.22a.7.7 0 0 1 .25.53v1.94l1.11-.97a.92.92 0 0 1 .6-.22c.24 0 .45.08.62.22a.7.7 0 0 1 .25.53c0 .2-.1.39-.26.53l-2.32 2.03v5.9l5.83-2.95.85-2.78c.06-.2.2-.35.4-.45a1 1 0 0 1 .66-.08c.22.05.4.18.52.35.11.17.14.38.08.57l-.4 1.32 1.92-.96a.92.92 0 0 1 1.17.27c.1.17.14.38.08.57-.06.2-.2.35-.4.45l-1.92.97 1.52.36c.22.05.4.18.52.35.11.17.14.38.09.57-.06.2-.2.35-.4.45a1 1 0 0 1-.66.08l-3.17-.74-5.83 2.94 5.83 2.94 3.17-.74a.97.97 0 0 1 .65.08c.2.1.35.26.4.45.06.2.03.4-.08.57-.12.17-.3.3-.52.35l-1.52.36 1.92.97c.2.1.34.26.4.45.06.2.03.4-.09.57-.11.17-.3.3-.51.35a.97.97 0 0 1-.65-.08l-1.92-.96.4 1.32a.66.66 0 0 1-.08.58.79.79 0 0 1-.22.22.98.98 0 0 1-.96.05.83.83 0 0 1-.25-.2.71.71 0 0 1-.15-.26l-.85-2.78-5.83-2.94v5.89l2.32 2.03a.7.7 0 0 1 .25.53.7.7 0 0 1-.25.53.92.92 0 0 1-.6.22.92.92 0 0 1-.61-.22l-1.11-.97v1.94a.7.7 0 0 1-.25.53.92.92 0 0 1-.6.22Z" fill="#0F805D"></path></svg><svg viewBox="0 0 20 20" fill="none" id="icon-telegram"><path d="M18.16 2.81a1.24 1.24 0 0 0-1.26-.2l-14.33 5.8a1.23 1.23 0 0 0 .06 2.3l3.09 1.07 1.68 5.54.01.03c.02.05.05.09.08.12.05.06.11.1.18.12l.02.01h.2l.02-.01a.4.4 0 0 0 .15-.1l.02-.01 2.4-2.66 3.52 2.72a1.24 1.24 0 0 0 1.96-.73l2.62-12.81a1.23 1.23 0 0 0-.42-1.19Zm-9.89 10.03-.56 2.75-1.18-3.9 5.85-3.05-4 4a.4.4 0 0 0-.1.2Zm6.91 3.81a.43.43 0 0 1-.28.32.42.42 0 0 1-.4-.06l-3.82-2.95a.4.4 0 0 0-.54.05l-1.68 1.85.57-2.75 5.75-5.75a.4.4 0 0 0-.47-.64l-8.29 4.32-3.13-1.09a.42.42 0 0 1-.29-.39.43.43 0 0 1 .27-.41l14.33-5.8a.43.43 0 0 1 .45.08.42.42 0 0 1 .14.41l-2.6 12.81Z" fill="#0F805D"></path></svg><svg viewBox="0 0 20 16" fill="none" id="icon-vkontakte"><g clip-path="url(#icon-vkontakte_0)"><path d="M1.4 5.18c0-.5.34-.78 1.03-.82l2.64.02c.18 0 .3.07.36.22.27.74.58 1.38.91 1.91.34.54.78 1.16 1.33 1.86.04.09.12.13.23.13.08 0 .14-.03.2-.1l.04-.16.02-2.56c0-.18-.05-.3-.15-.36-.1-.06-.29-.1-.56-.13-.21-.03-.32-.14-.32-.33 0-.03 0-.06.02-.08.25-.64.96-.97 2.13-.97l1-.01c.44 0 .82.1 1.11.28.3.19.45.48.45.89v3.36c.08.05.16.07.23.07.18 0 .33-.09.46-.27 1.3-1.51 2-2.53 2.11-3.04l.04-.08c.08-.15.22-.27.4-.38.2-.11.36-.18.5-.22.05-.02.1-.03.16-.03h2.75l.18.01c.24 0 .42.1.55.28a.5.5 0 0 1 .1.2 1.27 1.27 0 0 1 .04.32v.1c-.08.4-.29.84-.63 1.3a13 13 0 0 1-1.28 1.48c-.52.54-.85.89-.98 1.06-.1.11-.16.22-.16.32 0 .08.05.17.14.27l2.6 2.72c.14.16.2.33.2.52 0 .22-.1.41-.31.56a1.5 1.5 0 0 1-.77.25l-.3.02h-2.77l-.07.01c-.26 0-.5-.1-.73-.28l-1.66-1.75a.9.9 0 0 0-.25-.19 20.54 20.54 0 0 0-.36 1.32l-.05.25a.9.9 0 0 1-.75.62l-.25.02h-1.73a4.8 4.8 0 0 1-2.94-1.13 11.75 11.75 0 0 1-2.64-2.9 26.58 26.58 0 0 1-2.18-4.16 1.01 1.01 0 0 1-.09-.42Zm10.67 3.83a1.4 1.4 0 0 1-.68-.17c-.2-.12-.3-.27-.3-.47v-3.4c0-.2-.06-.34-.18-.42-.11-.09-.32-.13-.62-.13l-1 .03c-.52 0-.9.07-1.16.22.52.21.78.54.78 1v2.61a.85.85 0 0 1-.36.62c-.21.16-.45.24-.7.24a.92.92 0 0 1-.82-.43 14.94 14.94 0 0 1-2.06-3.31l-.16-.39-2.36-.01c-.16 0-.24 0-.26.02-.02.02-.03.06-.03.13a1 1 0 0 0 .04.28l.37.83c1 2.14 2.08 3.82 3.24 5.05 1.17 1.24 2.31 1.85 3.44 1.85h1.77c.07 0 .12-.01.16-.05.04-.03.07-.1.09-.2l.03-.15.34-1.3c.1-.18.18-.3.25-.35a.7.7 0 0 1 .46-.17c.29 0 .58.15.87.43l1.51 1.6c.1.13.2.2.3.2h2.93c.36 0 .53-.08.53-.23 0-.05-.01-.1-.05-.15l-2.57-2.67a.95.95 0 0 1-.3-.67c0-.24.09-.46.28-.68.15-.2.45-.52.9-.98.44-.46.83-.9 1.16-1.29.33-.4.55-.76.65-1.09l.06-.19a.2.2 0 0 1-.02-.1.3.3 0 0 0-.02-.1h-2.78a.97.97 0 0 0-.43.26l-.1.28a14.7 14.7 0 0 1-2.33 3.15c-.25.2-.54.3-.87.3Z" fill="#0F805D"></path></g><defs><clipPath id="icon-vkontakte_0"><path fill="#fff" transform="translate(.4 .8)" d="M0 0h19.2v15.09h-19.2z"></path></clipPath></defs></svg><svg viewBox="0 0 20 20" fill="none" id="icon-youtube"><path d="m12.56 9.75-3.6-2.4a.3.3 0 0 0-.46.25v4.8a.3.3 0 0 0 .16.26c.04.03.09.04.14.04.06 0 .12-.02.16-.05l3.6-2.4a.3.3 0 0 0 0-.5Zm-3.46 2.09v-3.68l2.76 1.84-2.76 1.84Zm8.59-6.13a1.53 1.53 0 0 0-.91-1.02c-2.54-.98-6.6-.96-6.78-.96-.17 0-4.25-.02-6.78.96a1.53 1.53 0 0 0-.9 1.02c-.2.73-.42 2.06-.42 4.29s.22 3.56.41 4.29a1.53 1.53 0 0 0 .91 1.02c2.53.97 6.6.96 6.78.96h.05c.52 0 4.32-.03 6.73-.96a1.53 1.53 0 0 0 .9-1.02c.2-.73.42-2.06.42-4.29s-.23-3.56-.41-4.29Zm-.59 8.43a.9.9 0 0 1-.54.6c-2.43.95-6.52.93-6.56.93-.05 0-4.13.02-6.56-.92a.9.9 0 0 1-.54-.61c-.18-.7-.4-1.98-.4-4.14 0-2.16.22-3.44.4-4.14a.9.9 0 0 1 .54-.6c2.43-.95 6.51-.93 6.56-.93.04 0 4.13-.02 6.56.92a.9.9 0 0 1 .54.61c.18.7.4 1.98.4 4.14 0 2.16-.22 3.44-.4 4.14Z" fill="#0F805D"></path></svg><svg fill="none" viewBox="0 0 52 52" id="logo"><path fill="#B22EC8" d="M14.4 18.44s-1.86 1.12-2.27 2.96c-.42 1.84 0 3.86 0 3.86s-2.92 1.2-2.92 5c0 3.78 2.46 4.86 2.46 4.86s.03 4.47 2.79 6.88c2.76 2.42 5.65 2.43 5.65 2.43s1.5 3.18 5.93 3.18 5.94-3.18 5.94-3.18 3-.44 5.65-2.43c2.65-1.98 2.58-6.88 2.58-6.88s2.67-1.07 2.67-4.87c0-3.79-2.92-5-2.92-5s.42-2 0-3.85c-.42-1.84-2.28-2.96-2.28-2.96"></path><path fill="#B22EC8" d="M40.05 24.14c0-7.74-6.28-9.92-14.02-9.92-7.74 0-14.02 2.18-14.02 9.92a14.02 14.02 0 0 0 28.04 0Z"></path><path fill="#6A107A" d="M26.48 47.6s3.79-2.65 3.54-8.75c1.63-1.7 2.13-3.97.65-6.74 2.5-3.56 2.24-7.42-.75-10.35 1.23-1.78.59-3.32-.8-4.47 0 0 4 1.96 7.08-.85 0 0 6.46 4.65 3.76 8.82 0 0 7.13 4.82.25 9.86 0 0 1 7.68-8.06 9.28 0 0-2.38 2.7-5.67 3.2Z"></path><path fill="currentColor" d="M40.29 8.13c-3.09 14.4-12.55 9.49-13.84 6.96-1.28-2.53-.04-12.61 13.84-6.96Z"></path><path fill="currentColor" d="M11.8 8.13c3.09 14.4 12.55 9.49 13.84 6.96 1.28-2.53.04-12.61-13.84-6.96Z"></path><path stroke="#000" stroke-linecap="round" stroke-linejoin="round" stroke-miterlimit="10" stroke-width="2" d="M40.28 8.13c-3.08 14.4-12.54 9.49-13.83 6.96-1.29-2.53-.04-12.61 13.83-6.96v0Z"></path><path stroke="#000" stroke-linecap="round" stroke-linejoin="round" stroke-miterlimit="10" stroke-width="2" d="M32.91 11.05c-2.26.86-5.15 2.26-6.43 4.08m-14.68-7c3.09 14.4 12.55 9.49 13.84 6.96 1.28-2.53.04-12.61-13.84-6.96v0Z"></path><path stroke="#000" stroke-linecap="round" stroke-linejoin="round" stroke-miterlimit="10" stroke-width="2" d="M19.18 11.05c2.26.86 5.15 2.26 6.43 4.08m-11.2 3.31s-1.87 1.12-2.28 2.96c-.42 1.84 0 3.86 0 3.86s-2.92 1.2-2.92 5c0 3.78 2.46 4.86 2.46 4.86s.03 4.47 2.79 6.88c2.76 2.42 5.65 2.43 5.65 2.43s1.5 3.18 5.93 3.18 5.94-3.18 5.94-3.18 3-.44 5.65-2.43c2.65-1.98 2.58-6.88 2.58-6.88s2.67-1.07 2.67-4.87c0-3.79-2.92-5-2.92-5s.42-2 0-3.85c-.42-1.84-2.28-2.96-2.28-2.96"></path><path stroke="#000" stroke-linecap="round" stroke-linejoin="round" stroke-miterlimit="10" stroke-width="2" d="M30.5 21.29s-1.88 2-4.21 2m-4.38-2s1.89 2 4.22 2m10.03 5.26a3.9 3.9 0 0 1-4 3.78m-4.16-3.78a3.9 3.9 0 0 0 4 3.78m-7.53-3.78a3.9 3.9 0 0 1-4 3.78m-4.16-3.78a3.9 3.9 0 0 0 4 3.78m9.95 6.57c-.75 1-2.28 1.69-4.04 1.69m-4.3-1.81c.71 1.07 2.3 1.81 4.12 1.81m-4.16-1.55c0 .9-.56 1.7-1.45 2.27m9.88-2.27c0 .97.66 1.84 1.69 2.41m-15.1-10.63c0 1.7-1.2 3.15-2.84 3.62m4-13.18a4.02 4.02 0 0 1-4 4.05m19.43-4.05c0 2.24 1.8 4.05 4 4.05m-1.92 5.51a3.8 3.8 0 0 0 2.63 3.55"></path></svg></svg>