<svg xmlns="http://www.w3.org/2000/svg"><style>:root svg:not(:target){display:none}</style><svg viewBox="0 0 28 28" fill="none" id="icon-burger-close"><rect width="35.207" height="2.994" rx="1.497" transform="matrix(.69604 .718 -.69604 .718 3.084 1)" fill="#0F805D" fill-opacity=".75"></rect><rect width="35.207" height="2.994" rx="1.497" transform="matrix(.69604 -.718 .69604 .718 .379 26.164)" fill="#0F805D" fill-opacity=".75"></rect></svg><svg viewBox="0 0 60 60" fill="none" id="icon-burger"><path d="M50.13 27.5h-40.26a2.37 2.37 0 0 0-2.37 2.38v.25a2.37 2.37 0 0 0 2.38 2.37h40.24a2.37 2.37 0 0 0 2.38-2.38v-.25a2.37 2.37 0 0 0-2.38-2.37Zm0 12.5h-40.26a2.37 2.37 0 0 0-2.37 2.38v.24a2.37 2.37 0 0 0 2.38 2.38h40.24a2.37 2.37 0 0 0 2.38-2.38v-.24a2.37 2.37 0 0 0-2.38-2.38Zm0-25h-40.26a2.37 2.37 0 0 0-2.37 2.38v.25a2.37 2.37 0 0 0 2.38 2.37h40.24a2.37 2.37 0 0 0 2.38-2.38v-.25a2.37 2.37 0 0 0-2.38-2.37Z" fill="#0F805D"></path></svg></svg>